<?xml version="1.0" standalone="no"?>
<!DOCTYPE svg PUBLIC "-//W3C//DTD SVG 20010904//EN"
 "http://www.w3.org/TR/2001/REC-SVG-20010904/DTD/svg10.dtd">
<svg version="1.0" xmlns="http://www.w3.org/2000/svg"
 width="300.000000pt" height="198.000000pt" viewBox="0 0 300.000000 198.000000"
 preserveAspectRatio="xMidYMid meet">
<metadata>
Created by potrace 1.10, written by Peter Selinger 2001-2011
</metadata>
<g transform="translate(0.000000,198.000000) scale(0.100000,-0.100000)"
fill="#000000" stroke="none">
<path d="M919 1902 c-55 -54 -80 -88 -88 -116 -6 -22 -8 -42 -6 -45 3 -2 21
14 41 37 37 44 143 112 173 112 10 0 23 -10 29 -22 16 -32 55 -179 49 -185 -3
-2 -24 8 -46 23 -39 25 -43 26 -85 14 -41 -11 -93 -46 -83 -56 2 -2 25 5 51
17 61 26 90 23 94 -13 4 -31 4 -31 -87 -191 -59 -106 -68 -117 -89 -112 -33 8
-44 -2 -30 -28 6 -12 19 -51 28 -87 14 -53 22 -67 43 -74 39 -14 56 -1 88 71
16 38 54 118 84 178 29 61 56 120 60 133 3 12 10 22 14 22 4 0 29 -42 56 -92
27 -51 61 -112 77 -136 104 -153 300 -257 387 -206 37 22 38 33 7 67 -28 31
-67 51 -125 67 -51 13 -139 67 -190 114 -18 17 -60 66 -92 109 -66 88 -92 158
-87 234 3 43 5 48 28 48 38 0 30 46 -17 100 -31 35 -52 47 -118 69 -44 14 -82
26 -85 26 -3 0 -39 -35 -81 -78z"/>
<path d="M2575 1910 c-3 -6 5 -14 18 -19 32 -12 40 -26 33 -54 -7 -30 -59 -59
-98 -55 -42 4 -46 -15 -9 -48 17 -15 31 -30 31 -34 0 -3 -25 -17 -56 -29 -54
-23 -92 -60 -80 -80 5 -7 15 -6 31 1 42 19 70 -1 72 -53 1 -24 -3 -50 -10 -58
-10 -12 -7 -13 21 -9 59 9 28 -16 -69 -54 -60 -24 -111 -37 -141 -38 -39 0
-46 -3 -41 -16 3 -9 19 -22 36 -29 27 -11 38 -9 119 26 93 41 118 47 118 27 0
-26 -52 -97 -87 -118 -34 -20 -36 -23 -18 -30 39 -14 113 22 132 63 30 64 43
99 43 111 0 24 135 37 156 16 7 -7 51 -10 110 -8 92 3 99 4 102 24 3 18 -8 26
-60 48 l-64 27 -97 -15 c-53 -9 -99 -16 -103 -16 -3 0 -4 10 -2 23 2 17 15 26
53 38 72 24 70 38 -9 63 -18 6 -17 9 9 36 18 19 26 36 22 49 -6 24 16 46 61
62 18 6 32 14 32 19 0 10 -57 82 -77 98 -9 6 -33 12 -52 12 -20 1 -47 7 -61
15 -30 17 -56 19 -65 5z m139 -98 c-31 -75 -50 -71 -28 6 13 43 18 51 30 41
11 -9 11 -17 -2 -47z m-94 -157 c0 -7 -12 -23 -26 -34 -24 -19 -27 -19 -60 -4
-19 9 -34 19 -34 23 0 3 19 15 43 27 44 21 77 17 77 -12z"/>
<path d="M579 1723 c-1 -4 0 -20 1 -35 1 -20 -3 -28 -15 -28 -10 0 -26 -11
-37 -25 -11 -14 -27 -25 -36 -25 -10 0 -22 -10 -27 -22 -7 -16 -18 -22 -33
-21 -25 3 -30 -14 -7 -23 22 -9 19 -71 -7 -107 -12 -18 -15 -26 -8 -19 19 16
30 15 30 -4 0 -15 -37 -53 -53 -54 -16 0 -47 93 -47 144 0 43 5 58 26 81 14
15 24 28 22 29 -2 0 -23 11 -48 24 -25 12 -48 22 -52 22 -12 0 -9 -34 6 -71 7
-19 19 -67 26 -108 7 -41 19 -89 26 -107 20 -47 18 -52 -21 -71 -28 -14 -35
-22 -35 -46 l0 -30 61 7 c47 4 82 0 159 -19 115 -29 183 -31 242 -8 59 22 71
32 57 49 -8 10 -31 11 -93 7 l-83 -6 -6 39 c-4 22 -7 67 -7 100 l0 61 43 16
c23 8 55 18 70 21 16 4 27 12 25 18 -7 19 -70 37 -110 31 -31 -4 -38 -2 -38
11 0 9 9 21 20 28 25 16 26 44 0 58 -10 6 -22 26 -26 45 -6 32 -23 57 -25 38z
m1 -211 c0 -34 -4 -40 -35 -55 -30 -14 -35 -15 -35 -2 0 20 -10 19 -26 -2 -12
-17 -13 -16 -14 4 0 12 8 24 18 27 10 4 31 20 47 36 16 17 32 30 37 30 4 0 8
-17 8 -38z m0 -124 c0 -52 -13 -65 -44 -44 -37 23 -32 12 14 -38 23 -24 37
-47 33 -49 -5 -3 -40 -2 -78 3 -39 5 -78 9 -87 10 -12 0 -18 8 -18 24 0 31 46
69 72 60 14 -4 21 0 25 15 5 21 46 50 71 51 7 0 12 -13 12 -32z"/>
<path d="M487 1643 c-4 -3 -7 -11 -7 -17 0 -6 5 -5 12 2 6 6 9 14 7 17 -3 3
-9 2 -12 -2z"/>
<path d="M1928 1644 c-26 -8 -22 -24 5 -24 74 0 143 -44 131 -83 -14 -43 -118
-190 -189 -267 -40 -42 -85 -96 -100 -119 l-28 -41 19 -38 c26 -51 64 -92 86
-92 9 0 31 19 48 43 17 23 54 73 81 111 108 147 189 299 189 352 0 48 -48 107
-110 133 -56 24 -104 33 -132 25z"/>
<path d="M2660 1395 c0 -2 34 -27 75 -55 41 -28 75 -56 75 -63 0 -7 18 -30 39
-51 48 -46 75 -46 79 3 4 39 -26 76 -93 116 -47 27 -175 64 -175 50z"/>
<path d="M2130 1227 c0 -8 12 -22 26 -32 14 -9 75 -64 135 -121 l110 -105 47
3 c42 3 47 6 50 29 3 22 -7 35 -55 75 -32 26 -83 58 -113 71 -30 13 -84 38
-119 56 -85 42 -81 41 -81 24z"/>
<path d="M522 1073 c-47 -50 -85 -100 -152 -197 -134 -194 -192 -276 -199
-281 -5 -3 -19 -26 -31 -51 -13 -25 -47 -78 -77 -117 -29 -39 -56 -81 -59 -93
-7 -28 22 -126 47 -158 11 -15 31 -26 43 -26 19 0 32 19 80 115 32 63 75 134
96 158 22 23 44 54 50 68 11 24 17 27 93 32 45 4 110 9 144 13 l62 7 6 -39 c4
-22 9 -47 12 -57 3 -13 -2 -20 -16 -24 -25 -6 -25 -5 -7 -63 36 -115 96 -178
112 -116 18 73 -35 570 -75 703 -5 18 -7 57 -4 86 12 114 -40 130 -125 40z
m72 -160 c3 -21 8 -69 11 -108 3 -38 8 -91 11 -116 l5 -46 -93 -5 c-51 -3
-101 -9 -112 -13 -16 -7 -17 -5 -11 16 4 13 23 49 43 79 19 30 40 68 46 85 14
38 78 145 87 145 4 0 10 -17 13 -37z"/>
<path d="M2788 994 c-4 -3 -1 -13 7 -21 8 -8 15 -23 15 -32 0 -24 19 -39 58
-47 28 -6 32 -4 32 15 0 41 -89 109 -112 85z"/>
<path d="M1245 974 c-33 -8 -84 -13 -113 -11 -40 3 -55 0 -59 -10 -10 -26 32
-55 84 -60 l49 -5 -12 -47 c-18 -68 -112 -318 -144 -382 -40 -78 -46 -82 -137
-78 -77 4 -77 4 -87 -24 -7 -19 -7 -33 1 -45 9 -15 34 -17 242 -16 205 1 234
4 251 19 27 24 12 48 -42 68 -54 20 -83 23 -131 13 -21 -5 -40 -6 -43 -3 -7 7
29 89 56 126 11 16 20 38 20 49 0 22 35 105 82 197 18 35 31 76 32 100 l1 40
75 3 c104 4 116 27 33 63 -51 22 -74 22 -158 3z"/>
<path d="M2600 984 c0 -8 36 -133 66 -226 39 -124 38 -126 -60 -181 -47 -26
-89 -47 -94 -47 -6 0 -24 -16 -40 -36 -24 -29 -30 -32 -36 -19 -7 20 -6 22 56
103 61 81 88 133 88 172 0 45 -38 96 -91 121 -56 26 -81 18 -49 -16 21 -22 21
-24 5 -56 -23 -44 -74 -108 -154 -192 l-65 -67 17 -35 c9 -20 17 -42 17 -49 0
-35 63 -59 88 -34 18 18 21 7 11 -42 -8 -40 -6 -51 18 -100 16 -30 36 -56 46
-58 15 -3 17 7 17 106 0 128 8 143 81 161 25 6 77 24 115 40 49 21 71 26 75
18 3 -7 16 -50 28 -97 12 -47 33 -120 47 -163 13 -43 24 -86 24 -96 0 -30 81
-168 107 -182 31 -17 54 -4 65 37 11 40 2 423 -10 454 -10 23 -11 23 -11 4 -1
-26 -47 -167 -69 -209 l-15 -30 -22 65 c-11 36 -26 74 -32 85 -15 26 -53 144
-53 165 0 9 12 23 28 31 15 8 42 24 61 37 19 12 49 22 67 22 18 0 36 5 40 12
13 20 -34 46 -108 58 -40 7 -91 20 -113 29 -37 17 -42 23 -64 92 -31 96 -48
129 -66 129 -8 0 -15 -3 -15 -6z m-176 -266 c-35 -50 -155 -180 -161 -174 -3
2 37 54 89 114 94 112 125 137 72 60z m346 22 c21 -11 41 -24 45 -29 5 -9 -43
-41 -60 -41 -7 0 -35 64 -35 80 0 14 5 13 50 -10z"/>
<path d="M1946 878 c-3 -7 -4 -20 -5 -28 0 -8 -3 -56 -7 -106 l-7 -92 -79 -31
c-44 -17 -86 -31 -94 -31 -19 0 -18 -16 2 -24 29 -11 79 -6 123 14 24 11 45
20 47 20 2 0 4 -30 4 -66 l0 -66 -28 5 c-16 3 -32 7 -38 8 -49 9 -104 -21
-104 -58 0 -15 2 -16 10 -3 12 19 104 20 138 2 18 -11 22 -21 22 -61 0 -27 -3
-63 -6 -80 -7 -32 -8 -32 -48 -25 -45 7 -77 21 -88 38 -6 8 -8 8 -8 0 0 -18
163 -174 182 -174 32 0 38 45 38 285 l0 233 46 16 c26 9 50 13 55 11 4 -3 11
-1 14 5 9 15 -13 40 -35 40 -32 0 -80 49 -80 81 0 59 -42 126 -54 87z"/>
<path d="M1531 674 c-11 -14 -26 -46 -34 -72 -40 -130 -39 -125 -22 -167 34
-81 68 -95 115 -45 l28 30 16 -25 c21 -32 50 -32 64 -1 31 68 21 237 -16 279
-18 20 -53 22 -71 5 -10 -11 -14 -10 -22 5 -14 24 -34 21 -58 -9z m119 -64 c0
-31 -4 -40 -17 -40 -10 0 -30 -7 -45 -14 -36 -19 -37 -2 -3 44 46 62 65 65 65
10z m-11 -103 c-23 -45 -30 -49 -50 -31 -26 24 -24 33 13 49 40 16 52 11 37
-18z m-61 -68 c-13 -8 -28 7 -28 30 0 11 5 10 20 -4 15 -14 17 -20 8 -26z"/>
</g>
</svg>
